<?xml version="1.0" standalone="no"?>
<!DOCTYPE svg PUBLIC "-//W3C//DTD SVG 20010904//EN"
 "http://www.w3.org/TR/2001/REC-SVG-20010904/DTD/svg10.dtd">
<svg version="1.0" xmlns="http://www.w3.org/2000/svg"
 width="72.000000pt" height="186.000000pt" viewBox="0 0 72.000000 186.000000"
 preserveAspectRatio="xMidYMid meet">

<g transform="translate(0.000000,186.000000) scale(0.100000,-0.100000)"
fill="#000000" stroke="none">
<path d="M187 1850 c-99 -13 -144 -65 -172 -202 -13 -62 -14 -110 -8 -279 8
-201 9 -205 41 -273 61 -129 143 -212 242 -245 20 -6 52 -25 73 -42 l37 -30 0
-265 0 -264 -24 0 c-54 0 -56 11 -56 268 0 130 -4 242 -8 249 -5 9 -43 9 -156
0 l-148 -11 4 -270 c5 -289 9 -318 60 -386 12 -17 47 -43 78 -58 51 -25 66
-27 200 -31 216 -5 306 23 350 109 19 37 20 58 20 385 l0 346 -25 54 c-42 89
-205 220 -311 251 -29 8 -55 22 -59 32 -13 33 -17 199 -7 310 6 63 12 116 15
118 2 3 16 0 30 -5 46 -18 55 -52 49 -198 -2 -72 -2 -143 2 -157 l7 -27 147 3
147 3 3 220 c3 248 -3 281 -64 334 -51 45 -119 62 -274 65 -74 2 -161 0 -193
-4z"/>
</g>
</svg>
